# xmcd
#
# Track frame offsets:
# 150
# 30188
# 52039
# 78480
# 95783
# 104506
# 125671
# 154518
# 173039
# 195292
# 220352
# 226019
# 245403
#
# Disc length: 3749 seconds
#
#
# Revision: 0
# Processed by: cddbd v1.5.1PL0 Copyright (c) Steve Scherf et al.
# Submitted via: FreeRIP 2.91 
#
DISCID=a30ea30d
DTITLE=Christ Tabernacle Choir - We Have Overcome
DYEAR=2004
DGENRE=Gospel
TTITLE0=Presence of the Lord
TTITLE1=Open the Doors
TTITLE2=Honored, Exalted and Glorified
TTITLE3=Make Some Noyz
TTITLE4=Intro to Master Restorer
TTITLE5=Master Restorer
TTITLE6=He Will Carry You
TTITLE7=What You Say is What You Get
TTITLE8=Rain Down
TTITLE9=I Wanna Sing Praises
TTITLE10=Intro to I'm Not Just Clean (I'm Free)
TTITLE11=I'm Not Just Clean (I'm Free)
TTITLE12=We Have Overcome
EXTD=
EXTT0=
EXTT1=
EXTT2=
EXTT3=
EXTT4=
EXTT5=
EXTT6=
EXTT7=
EXTT8=
EXTT9=
EXTT10=
EXTT11=
EXTT12=
PLAYORDER=
